<?xml version="1.0" encoding="UTF-8" standalone="no"?>
<!DOCTYPE svg PUBLIC "-//W3C//DTD SVG 1.1//EN"
 "http://www.w3.org/Graphics/SVG/1.1/DTD/svg11.dtd">
<!-- Generated by graphviz version 2.43.0 (0)
 -->
<!-- Title: %3 Pages: 1 -->
<svg width="436pt" height="850pt"
 viewBox="0.00 0.00 436.00 850.00" xmlns="http://www.w3.org/2000/svg" xmlns:xlink="http://www.w3.org/1999/xlink">
<g id="graph0" class="graph" transform="scale(1 1) rotate(0) translate(4 846)">
<title>%3</title>
<polygon fill="white" stroke="transparent" points="-4,4 -4,-846 432,-846 432,4 -4,4"/>
<!-- BB0 -->
<g id="node1" class="node">
<title>BB0</title>
<polygon fill="none" stroke="black" points="313.5,-842 231.5,-842 231.5,-774 313.5,-774 313.5,-842"/>
<text text-anchor="start" x="239.5" y="-826.8" font-family="Times,serif" font-size="14.00">BB0:</text>
<text text-anchor="start" x="239.5" y="-811.8" font-family="Times,serif" font-size="14.00"> &#160;&#160;&#160;a0 = 0</text>
<text text-anchor="start" x="239.5" y="-796.8" font-family="Times,serif" font-size="14.00"> &#160;&#160;&#160;i0 = 0</text>
<text text-anchor="start" x="239.5" y="-781.8" font-family="Times,serif" font-size="14.00"> &#160;&#160;&#160;jmp BB1</text>
</g>
<!-- BB1 -->
<g id="node2" class="node">
<title>BB1</title>
<polygon fill="none" stroke="black" points="327.5,-738 217.5,-738 217.5,-610 327.5,-610 327.5,-738"/>
<text text-anchor="start" x="225.5" y="-722.8" font-family="Times,serif" font-size="14.00">BB1:</text>
<text text-anchor="start" x="225.5" y="-707.8" font-family="Times,serif" font-size="14.00"> &#160;&#160;&#160;a1 = φ(a0, a2)</text>
<text text-anchor="start" x="225.5" y="-692.8" font-family="Times,serif" font-size="14.00"> &#160;&#160;&#160;i1 = φ(i2, i0)</text>
<text text-anchor="start" x="225.5" y="-677.8" font-family="Times,serif" font-size="14.00"> &#160;&#160;&#160;j0 = φ(j2)</text>
<text text-anchor="start" x="225.5" y="-662.8" font-family="Times,serif" font-size="14.00"> &#160;&#160;&#160;k0 = φ(k1)</text>
<text text-anchor="start" x="225.5" y="-647.8" font-family="Times,serif" font-size="14.00"> &#160;&#160;&#160;cmp i1 10</text>
<text text-anchor="start" x="225.5" y="-632.8" font-family="Times,serif" font-size="14.00"> &#160;&#160;&#160;jlt BB2</text>
<text text-anchor="start" x="225.5" y="-617.8" font-family="Times,serif" font-size="14.00"> &#160;&#160;&#160;jmp BB3</text>
</g>
<!-- BB0&#45;&gt;BB1 -->
<g id="edge1" class="edge">
<title>BB0&#45;&gt;BB1</title>
<path fill="none" stroke="black" d="M266.55,-773.69C266.13,-765.81 265.87,-757.1 265.79,-748.21"/>
<polygon fill="black" stroke="black" points="269.29,-748.13 265.76,-738.14 262.29,-748.15 269.29,-748.13"/>
</g>
<!-- BB0&#45;&gt;BB1 -->
<g id="edge20" class="edge">
<title>BB0&#45;&gt;BB1</title>
<path fill="none" stroke="blue" d="M278.45,-773.69C278.87,-765.81 279.13,-757.1 279.21,-748.21"/>
<polygon fill="blue" stroke="blue" points="282.71,-748.15 279.24,-738.14 275.71,-748.13 282.71,-748.15"/>
</g>
<!-- BB1&#45;&gt;BB1 -->
<g id="edge26" class="edge">
<title>BB1&#45;&gt;BB1</title>
<path fill="none" stroke="red" d="M327.57,-696.49C338.07,-693.8 345.5,-686.3 345.5,-674 345.5,-665.73 342.15,-659.64 336.76,-655.71"/>
<polygon fill="red" stroke="red" points="338.12,-652.48 327.57,-651.51 335.21,-658.85 338.12,-652.48"/>
</g>
<!-- BB2 -->
<g id="node3" class="node">
<title>BB2</title>
<polygon fill="none" stroke="black" points="223.5,-574 141.5,-574 141.5,-521 223.5,-521 223.5,-574"/>
<text text-anchor="start" x="149.5" y="-558.8" font-family="Times,serif" font-size="14.00">BB2:</text>
<text text-anchor="start" x="149.5" y="-543.8" font-family="Times,serif" font-size="14.00"> &#160;&#160;&#160;j1 = i1</text>
<text text-anchor="start" x="149.5" y="-528.8" font-family="Times,serif" font-size="14.00"> &#160;&#160;&#160;jmp BB4</text>
</g>
<!-- BB1&#45;&gt;BB2 -->
<g id="edge2" class="edge">
<title>BB1&#45;&gt;BB2</title>
<path fill="none" stroke="black" d="M217.46,-615.49C209.17,-604.25 201.32,-592.81 194.98,-582.64"/>
<polygon fill="black" stroke="black" points="197.98,-580.82 189.83,-574.06 191.98,-584.43 197.98,-580.82"/>
</g>
<!-- BB1&#45;&gt;BB2 -->
<g id="edge14" class="edge">
<title>BB1&#45;&gt;BB2</title>
<path fill="none" stroke="blue" d="M226.71,-609.66C219.87,-600.19 213.05,-590.77 206.9,-582.25"/>
<polygon fill="blue" stroke="blue" points="209.68,-580.12 200.98,-574.06 204,-584.22 209.68,-580.12"/>
</g>
<!-- BB3 -->
<g id="node4" class="node">
<title>BB3</title>
<polygon fill="none" stroke="black" points="303.5,-566.5 241.5,-566.5 241.5,-528.5 303.5,-528.5 303.5,-566.5"/>
<text text-anchor="start" x="249.5" y="-551.3" font-family="Times,serif" font-size="14.00">BB3:</text>
<text text-anchor="start" x="249.5" y="-536.3" font-family="Times,serif" font-size="14.00"> &#160;&#160;&#160;ret a1</text>
</g>
<!-- BB1&#45;&gt;BB3 -->
<g id="edge3" class="edge">
<title>BB1&#45;&gt;BB3</title>
<path fill="none" stroke="black" d="M265.75,-609.66C265.77,-598.1 266.1,-586.59 266.74,-576.73"/>
<polygon fill="black" stroke="black" points="270.23,-577 267.56,-566.75 263.25,-576.43 270.23,-577"/>
</g>
<!-- BB1&#45;&gt;BB3 -->
<g id="edge19" class="edge">
<title>BB1&#45;&gt;BB3</title>
<path fill="none" stroke="blue" d="M279.25,-609.66C279.23,-598.1 278.9,-586.59 278.26,-576.73"/>
<polygon fill="blue" stroke="blue" points="281.75,-576.43 277.44,-566.75 274.77,-577 281.75,-576.43"/>
</g>
<!-- BB2&#45;&gt;BB1 -->
<g id="edge25" class="edge">
<title>BB2&#45;&gt;BB1</title>
<path fill="none" stroke="red" d="M212.13,-574.06C219.21,-582.21 226.77,-591.65 234.11,-601.41"/>
<polygon fill="red" stroke="red" points="231.45,-603.69 240.21,-609.66 237.08,-599.53 231.45,-603.69"/>
</g>
<!-- BB4 -->
<g id="node5" class="node">
<title>BB4</title>
<polygon fill="none" stroke="black" points="281,-485 168,-485 168,-372 281,-372 281,-485"/>
<text text-anchor="start" x="176" y="-469.8" font-family="Times,serif" font-size="14.00">BB4:</text>
<text text-anchor="start" x="176" y="-454.8" font-family="Times,serif" font-size="14.00"> &#160;&#160;&#160;a2 = φ(a3, a1)</text>
<text text-anchor="start" x="176" y="-439.8" font-family="Times,serif" font-size="14.00"> &#160;&#160;&#160;j2 = φ(j1, j3)</text>
<text text-anchor="start" x="176" y="-424.8" font-family="Times,serif" font-size="14.00"> &#160;&#160;&#160;k1 = φ(k4, k0)</text>
<text text-anchor="start" x="176" y="-409.8" font-family="Times,serif" font-size="14.00"> &#160;&#160;&#160;cmp j2 10</text>
<text text-anchor="start" x="176" y="-394.8" font-family="Times,serif" font-size="14.00"> &#160;&#160;&#160;jlt BB5</text>
<text text-anchor="start" x="176" y="-379.8" font-family="Times,serif" font-size="14.00"> &#160;&#160;&#160;jmp BB6</text>
</g>
<!-- BB2&#45;&gt;BB4 -->
<g id="edge4" class="edge">
<title>BB2&#45;&gt;BB4</title>
<path fill="none" stroke="black" d="M186.02,-520.82C188.25,-513.04 191.13,-504.1 194.3,-494.93"/>
<polygon fill="black" stroke="black" points="197.66,-495.93 197.71,-485.34 191.07,-493.59 197.66,-495.93"/>
</g>
<!-- BB2&#45;&gt;BB4 -->
<g id="edge17" class="edge">
<title>BB2&#45;&gt;BB4</title>
<path fill="none" stroke="blue" d="M197.42,-520.82C200.77,-513.04 204.32,-504.1 207.72,-494.93"/>
<polygon fill="blue" stroke="blue" points="211.08,-495.93 211.2,-485.34 204.5,-493.54 211.08,-495.93"/>
</g>
<!-- BB4&#45;&gt;BB1 -->
<g id="edge24" class="edge">
<title>BB4&#45;&gt;BB1</title>
<path fill="none" stroke="red" d="M281.38,-475.14C294.01,-488.45 305.66,-504.03 312.5,-521 322.63,-546.14 318.88,-574.65 310.49,-600.13"/>
<polygon fill="red" stroke="red" points="307.13,-599.14 307.07,-609.73 313.72,-601.49 307.13,-599.14"/>
</g>
<!-- BB4&#45;&gt;BB4 -->
<g id="edge23" class="edge">
<title>BB4&#45;&gt;BB4</title>
<path fill="none" stroke="red" d="M281.03,-449.49C291.57,-446.9 299,-439.91 299,-428.5 299,-420.84 295.65,-415.16 290.25,-411.48"/>
<polygon fill="red" stroke="red" points="291.59,-408.25 281.03,-407.51 288.83,-414.68 291.59,-408.25"/>
</g>
<!-- BB5 -->
<g id="node6" class="node">
<title>BB5</title>
<polygon fill="none" stroke="black" points="231.5,-336 147.5,-336 147.5,-268 231.5,-268 231.5,-336"/>
<text text-anchor="start" x="155.5" y="-320.8" font-family="Times,serif" font-size="14.00">BB5:</text>
<text text-anchor="start" x="155.5" y="-305.8" font-family="Times,serif" font-size="14.00"> &#160;&#160;&#160;cmp i1 j2</text>
<text text-anchor="start" x="155.5" y="-290.8" font-family="Times,serif" font-size="14.00"> &#160;&#160;&#160;je BB7</text>
<text text-anchor="start" x="155.5" y="-275.8" font-family="Times,serif" font-size="14.00"> &#160;&#160;&#160;jmp BB8</text>
</g>
<!-- BB4&#45;&gt;BB5 -->
<g id="edge5" class="edge">
<title>BB4&#45;&gt;BB5</title>
<path fill="none" stroke="black" d="M195.41,-371.8C192.8,-363.15 190.49,-354.33 188.68,-346.01"/>
<polygon fill="black" stroke="black" points="192.11,-345.29 186.73,-336.16 185.24,-346.65 192.11,-345.29"/>
</g>
<!-- BB4&#45;&gt;BB5 -->
<g id="edge15" class="edge">
<title>BB4&#45;&gt;BB5</title>
<path fill="none" stroke="blue" d="M208.84,-371.8C206.41,-363.15 203.93,-354.33 201.59,-346.01"/>
<polygon fill="blue" stroke="blue" points="204.9,-344.84 198.82,-336.16 198.16,-346.74 204.9,-344.84"/>
</g>
<!-- BB6 -->
<g id="node7" class="node">
<title>BB6</title>
<polygon fill="none" stroke="black" points="428,-336 329,-336 329,-268 428,-268 428,-336"/>
<text text-anchor="start" x="337" y="-320.8" font-family="Times,serif" font-size="14.00">BB6:</text>
<text text-anchor="start" x="337" y="-305.8" font-family="Times,serif" font-size="14.00"> &#160;&#160;&#160;%5 = i1 + 1</text>
<text text-anchor="start" x="337" y="-290.8" font-family="Times,serif" font-size="14.00"> &#160;&#160;&#160;i2 = %5</text>
<text text-anchor="start" x="337" y="-275.8" font-family="Times,serif" font-size="14.00"> &#160;&#160;&#160;jmp BB1</text>
</g>
<!-- BB4&#45;&gt;BB6 -->
<g id="edge6" class="edge">
<title>BB4&#45;&gt;BB6</title>
<path fill="none" stroke="black" d="M281.37,-376.14C295.17,-364.83 309.88,-353.03 323.59,-342.28"/>
<polygon fill="black" stroke="black" points="325.79,-345 331.53,-336.09 321.49,-339.48 325.79,-345"/>
</g>
<!-- BB4&#45;&gt;BB6 -->
<g id="edge16" class="edge">
<title>BB4&#45;&gt;BB6</title>
<path fill="none" stroke="blue" d="M281.3,-386.73C299.15,-372.72 318.52,-357.04 335.28,-343.08"/>
<polygon fill="blue" stroke="blue" points="337.86,-345.49 343.27,-336.38 333.36,-340.12 337.86,-345.49"/>
</g>
<!-- BB5&#45;&gt;BB4 -->
<g id="edge28" class="edge">
<title>BB5&#45;&gt;BB4</title>
<path fill="none" stroke="red" d="M210.92,-336.16C214.02,-344.21 216.98,-353.1 219.59,-362.07"/>
<polygon fill="red" stroke="red" points="216.24,-363.1 222.28,-371.8 222.99,-361.23 216.24,-363.1"/>
</g>
<!-- BB7 -->
<g id="node8" class="node">
<title>BB7</title>
<polygon fill="none" stroke="black" points="99,-232 0,-232 0,-164 99,-164 99,-232"/>
<text text-anchor="start" x="8" y="-216.8" font-family="Times,serif" font-size="14.00">BB7:</text>
<text text-anchor="start" x="8" y="-201.8" font-family="Times,serif" font-size="14.00"> &#160;&#160;&#160;%1 = i1 + 1</text>
<text text-anchor="start" x="8" y="-186.8" font-family="Times,serif" font-size="14.00"> &#160;&#160;&#160;k3 = %1</text>
<text text-anchor="start" x="8" y="-171.8" font-family="Times,serif" font-size="14.00"> &#160;&#160;&#160;jmp BB9</text>
</g>
<!-- BB5&#45;&gt;BB7 -->
<g id="edge7" class="edge">
<title>BB5&#45;&gt;BB7</title>
<path fill="none" stroke="black" d="M147.46,-274.73C131.54,-263.67 113.35,-250.57 96.98,-238.4"/>
<polygon fill="black" stroke="black" points="98.71,-235.32 88.6,-232.13 94.52,-240.92 98.71,-235.32"/>
</g>
<!-- BB5&#45;&gt;BB7 -->
<g id="edge18" class="edge">
<title>BB5&#45;&gt;BB7</title>
<path fill="none" stroke="blue" d="M150.41,-267.88C137.11,-257.87 121.97,-246.8 107.52,-236.51"/>
<polygon fill="blue" stroke="blue" points="109.3,-233.48 99.12,-230.56 105.26,-239.2 109.3,-233.48"/>
</g>
<!-- BB8 -->
<g id="node9" class="node">
<title>BB8</title>
<polygon fill="none" stroke="black" points="216,-232 117,-232 117,-164 216,-164 216,-232"/>
<text text-anchor="start" x="125" y="-216.8" font-family="Times,serif" font-size="14.00">BB8:</text>
<text text-anchor="start" x="125" y="-201.8" font-family="Times,serif" font-size="14.00"> &#160;&#160;&#160;%0 = j2 + 2</text>
<text text-anchor="start" x="125" y="-186.8" font-family="Times,serif" font-size="14.00"> &#160;&#160;&#160;k2 = %0</text>
<text text-anchor="start" x="125" y="-171.8" font-family="Times,serif" font-size="14.00"> &#160;&#160;&#160;jmp BB9</text>
</g>
<!-- BB5&#45;&gt;BB8 -->
<g id="edge8" class="edge">
<title>BB5&#45;&gt;BB8</title>
<path fill="none" stroke="black" d="M175.67,-267.88C173.45,-259.69 171.34,-250.79 169.56,-242.19"/>
<polygon fill="black" stroke="black" points="172.98,-241.45 167.63,-232.3 166.11,-242.78 172.98,-241.45"/>
</g>
<!-- BB5&#45;&gt;BB8 -->
<g id="edge13" class="edge">
<title>BB5&#45;&gt;BB8</title>
<path fill="none" stroke="blue" d="M188.4,-267.88C186.92,-259.69 185.01,-250.79 182.92,-242.19"/>
<polygon fill="blue" stroke="blue" points="186.26,-241.12 180.38,-232.3 179.48,-242.86 186.26,-241.12"/>
</g>
<!-- BB9 -->
<g id="node10" class="node">
<title>BB9</title>
<polygon fill="none" stroke="black" points="223,-128 110,-128 110,0 223,0 223,-128"/>
<text text-anchor="start" x="118" y="-112.8" font-family="Times,serif" font-size="14.00">BB9:</text>
<text text-anchor="start" x="118" y="-97.8" font-family="Times,serif" font-size="14.00"> &#160;&#160;&#160;k4 = φ(k3, k2)</text>
<text text-anchor="start" x="118" y="-82.8" font-family="Times,serif" font-size="14.00"> &#160;&#160;&#160;%2 = i1 + j2</text>
<text text-anchor="start" x="118" y="-67.8" font-family="Times,serif" font-size="14.00"> &#160;&#160;&#160;%3 = a2 + %2</text>
<text text-anchor="start" x="118" y="-52.8" font-family="Times,serif" font-size="14.00"> &#160;&#160;&#160;a3 = %3</text>
<text text-anchor="start" x="118" y="-37.8" font-family="Times,serif" font-size="14.00"> &#160;&#160;&#160;%4 = j2 + 1</text>
<text text-anchor="start" x="118" y="-22.8" font-family="Times,serif" font-size="14.00"> &#160;&#160;&#160;j3 = %4</text>
<text text-anchor="start" x="118" y="-7.8" font-family="Times,serif" font-size="14.00"> &#160;&#160;&#160;jmp BB4</text>
</g>
<!-- BB5&#45;&gt;BB9 -->
<g id="edge21" class="edge">
<title>BB5&#45;&gt;BB9</title>
<path fill="none" stroke="blue" d="M210.28,-267.83C216.06,-256.84 221.56,-244.28 224.5,-232 231.53,-202.61 232.41,-193.17 224.5,-164 222.04,-154.94 218.52,-145.86 214.42,-137.08"/>
<polygon fill="blue" stroke="blue" points="217.52,-135.45 209.95,-128.04 211.24,-138.56 217.52,-135.45"/>
</g>
<!-- BB6&#45;&gt;BB1 -->
<g id="edge12" class="edge">
<title>BB6&#45;&gt;BB1</title>
<path fill="none" stroke="black" d="M370.73,-336.1C363.31,-388.16 351.78,-491.72 321.5,-574 318.21,-582.95 314.12,-592.01 309.7,-600.84"/>
<polygon fill="black" stroke="black" points="306.49,-599.44 305,-609.93 312.7,-602.65 306.49,-599.44"/>
</g>
<!-- BB6&#45;&gt;BB1 -->
<g id="edge22" class="edge">
<title>BB6&#45;&gt;BB1</title>
<path fill="none" stroke="red" d="M382.1,-336.1C381.31,-388.16 369.78,-491.72 339.5,-574 336.17,-583.04 332.03,-592.2 327.44,-601.11"/>
<polygon fill="red" stroke="red" points="324.36,-599.46 322.72,-609.93 330.53,-602.77 324.36,-599.46"/>
</g>
<!-- BB7&#45;&gt;BB9 -->
<g id="edge9" class="edge">
<title>BB7&#45;&gt;BB9</title>
<path fill="none" stroke="black" d="M73.07,-163.69C81.93,-153.07 92.42,-140.93 103.13,-128.88"/>
<polygon fill="black" stroke="black" points="105.76,-131.2 109.81,-121.41 100.54,-126.53 105.76,-131.2"/>
</g>
<!-- BB7&#45;&gt;BB9 -->
<g id="edge29" class="edge">
<title>BB7&#45;&gt;BB9</title>
<path fill="none" stroke="red" d="M84.98,-163.69C93.1,-155.05 101.9,-145.41 110.63,-135.63"/>
<polygon fill="red" stroke="red" points="113.26,-137.94 117.28,-128.14 108.03,-133.29 113.26,-137.94"/>
</g>
<!-- BB8&#45;&gt;BB9 -->
<g id="edge11" class="edge">
<title>BB8&#45;&gt;BB9</title>
<path fill="none" stroke="black" d="M160.55,-163.69C160.13,-155.81 159.87,-147.1 159.79,-138.21"/>
<polygon fill="black" stroke="black" points="163.29,-138.13 159.76,-128.14 156.29,-138.15 163.29,-138.13"/>
</g>
<!-- BB8&#45;&gt;BB9 -->
<g id="edge30" class="edge">
<title>BB8&#45;&gt;BB9</title>
<path fill="none" stroke="red" d="M172.45,-163.69C172.87,-155.81 173.13,-147.1 173.21,-138.21"/>
<polygon fill="red" stroke="red" points="176.71,-138.15 173.24,-128.14 169.71,-138.13 176.71,-138.15"/>
</g>
<!-- BB9&#45;&gt;BB4 -->
<g id="edge10" class="edge">
<title>BB9&#45;&gt;BB4</title>
<path fill="none" stroke="black" d="M214.58,-128.11C221.86,-139.38 228.31,-151.53 232.5,-164 254.29,-228.84 244.9,-307.61 235.06,-362.05"/>
<polygon fill="black" stroke="black" points="231.61,-361.45 233.23,-371.92 238.5,-362.73 231.61,-361.45"/>
</g>
<!-- BB9&#45;&gt;BB4 -->
<g id="edge27" class="edge">
<title>BB9&#45;&gt;BB4</title>
<path fill="none" stroke="red" d="M223.04,-115.25C234.43,-129.88 244.66,-146.63 250.5,-164 272.29,-228.84 262.9,-307.61 249.5,-362.05"/>
<polygon fill="red" stroke="red" points="246.06,-361.36 246.95,-371.92 252.84,-363.11 246.06,-361.36"/>
</g>
</g>
</svg>
